<svg xmlns="http://www.w3.org/2000/svg" width="128" height="128" viewBox="0 0 128 128">

  <defs>
    <filter id="soft" x="-40%" y="-40%" width="180%" height="180%">
      <feDropShadow dx="0" dy="5" stdDeviation="5" flood-color="#000" flood-opacity=".62"/>
    </filter>
    <filter id="glowCyan" x="-70%" y="-70%" width="240%" height="240%">
      <feGaussianBlur stdDeviation="3.2" result="blur"/>
      <feMerge><feMergeNode in="blur"/><feMergeNode in="SourceGraphic"/></feMerge>
    </filter>
    <filter id="glowAmber" x="-70%" y="-70%" width="240%" height="240%">
      <feDropShadow dx="0" dy="0" stdDeviation="4" flood-color="#f4aa39" flood-opacity=".72"/>
    </filter>
    <linearGradient id="plate" x1="22" y1="18" x2="106" y2="112" gradientUnits="userSpaceOnUse">
      <stop stop-color="#293c3c"/><stop offset=".52" stop-color="#111d1e"/><stop offset="1" stop-color="#070d0e"/>
    </linearGradient>
    <linearGradient id="metal" x1="18" y1="18" x2="112" y2="112" gradientUnits="userSpaceOnUse">
      <stop stop-color="#b8ac92"/><stop offset=".46" stop-color="#6e624f"/><stop offset="1" stop-color="#2b251d"/>
    </linearGradient>
    <linearGradient id="rust" x1="16" y1="12" x2="112" y2="112" gradientUnits="userSpaceOnUse">
      <stop stop-color="#d58d49"/><stop offset=".44" stop-color="#8c431e"/><stop offset="1" stop-color="#2a1810"/>
    </linearGradient>
  </defs>

<rect width="128" height="128" fill="none"/>
<g transform="translate(2 2) scale(.96875)">

    <g filter="url(#soft)">
      <path d="M35 25h58l12 15-9 57-20 9H36L23 91l7-51z" fill="url(#metal)" stroke="#2b251f" stroke-width="4"/>
      <path d="M43 36h41l8 9-6 39-14 7H44l-8-8 5-39z" fill="#4b473c" stroke="#927a50" stroke-width="2"/>
      <path d="M39 46l45 37M88 44L43 84" stroke="#2b2822" stroke-width="5" opacity=".55"/>
      <path d="M50 33l9-8M78 103l10-8M28 69h13M89 61h13" stroke="#c17b35" stroke-width="4" stroke-linecap="round"/>
      <circle cx="64" cy="63" r="10" fill="#1a1511" stroke="#a77a43" stroke-width="4"/>
    </g>
</g>
</svg>